# AST/ASF file generated using VICON BodyLanguage
# -----------------------------------------------
:version 1.10
:name VICON
:units
  mass 1.0
  length 0.45
  angle deg
:documentation
   .ast/.asf automatically generated from VICON data using
   VICON BodyBuilder and BodyLanguage model FoxedUp or BRILLIANT.MOD
:root
   order TX TY TZ RX RY RZ
   axis XYZ
   position 0 0 0  
   orientation 0 0 0 
:bonedata
  begin
     id 1 
     name lhipjoint
     direction 0.606768 -0.715223 0.346827 
     length 2.41543 
     axis 0 0 0  XYZ
  end
  begin
     id 2 
     name lfemur
     direction 0.34202 -0.939693 0  
     length 7.2778  
     axis 0 0 20  XYZ
    dof rx ry rz
    limits (-160.0 20.0)
           (-70.0 70.0)
           (-60.0 70.0)
  end
  begin
     id 3 
     name ltibia
     direction 0.34202 -0.939693 0   
     length 7.61811   
     axis 0 0 20   XYZ
    dof rx
    limits (-10.0 170.0)
  end
  begin
     id 4 
     name lfoot
     direction 0.0823924 -0.226371 0.97055   
     length 2.33618   
     axis -90 7.62852e-016 20   XYZ
    dof rx rz
    limits (-45.0 90.0)
           (-70.0 20.0)
  end
  begin
     id 5 
     name ltoes
     direction 1.53554e-011 -4.21934e-011 1   
     length 1.17015   
     axis -90 7.62852e-016 20   XYZ
    dof rx
    limits (-90.0 20.0)
  end
  begin
     id 6 
     name rhipjoint
     direction -0.6077 -0.714582 0.346516   
     length 2.4176  
     axis 0 0 0  XYZ 
  end
  begin
     id 7 
     name rfemur
     direction -0.34202 -0.939693 0   
     length 7.28127   
     axis 0 0 -20   XYZ
    dof rx ry rz
    limits (-160.0 20.0)
           (-70.0 70.0)
           (-70.0 60.0)
  end
  begin
     id 8 
     name rtibia
     direction -0.34202 -0.939693 0   
     length 7.77648   
     axis 0 0 -20   XYZ
    dof rx
    limits (-10.0 170.0)
 end
 begin
     id 9 
     name rfoot
     direction -0.0809463 -0.222398 0.97159   
     length 2.37533  
     axis -90 -7.62852e-016 -20   XYZ
    dof rx rz
    limits (-45.0 90.0)
           (-20.0 70.0)
  end
  begin
     id 10 
     name rtoes
     direction -1.53568e-011 -4.21714e-011 1   
     length 1.18972   
     axis -90 -7.62852e-016 -20   XYZ
    dof rx
    limits (-90.0 20.0)
  end
  begin
     id 11 
     name lowerback
     direction 0.010968 0.991932 -0.126297   
     length 2.21698   
     axis 0 0 0   XYZ
    dof rx ry rz
    limits (-20.0 45.0)
           (-30.0 30.0)
           (-30.0 30.0)
  end
  begin
     id 12 
     name upperback
     direction 0.0167007 0.997503 -0.0686276   
     length 2.22371   
     axis 0 0 0   XYZ
    dof rx ry rz
    limits (-20.0 45.0)
           (-30.0 30.0)
           (-30.0 30.0)
  end
  begin
     id 13 
     name thorax
     direction 0.0111721 0.999885 -0.0102878   
     length 2.25242   
     axis 0 0 0   XYZ
    dof rx ry rz
    limits (-20.0 45.0)
           (-30.0 30.0)
           (-30.0 30.0)
  end
  begin
     id 14 
     name lowerneck
     direction -0.0120265 0.990428 0.137508   
     length 1.57674   
     axis 0 0 0   XYZ
    dof rx ry rz
    limits (-20.0 45.0)
           (-30.0 30.0)
           (-30.0 30.0)
  end
  begin
     id 15 
     name upperneck
     direction 0.0175669 0.998907 0.0433089   
     length 1.5618   
     axis 0 0 0   XYZ
    dof rx ry rz
    limits (-20.0 45.0)
           (-30.0 30.0)
           (-30.0 30.0)
  end
  begin
     id 16
     name head
     direction 0.00754609 0.99997 0.00185367  
     length 1.60579  
     axis 0 0 0   XYZ
    dof rx ry rz
    limits (-20.0 45.0)
           (-30.0 30.0)
           (-30.0 30.0)
  end
  begin
     id 17 
     name lclavicle
     direction 0.885866 0.429166 -0.176231  
     length 3.44967  
     axis 0 0 0   XYZ
    dof ry rz
    limits (-20.0 10.0)
           (0.0 20.0)
  end
  begin
     id 18 
     name lhumerus
     direction 1 -4.48973e-011 -1.90255e-027   
     length 5.20607   
     axis 180 -30 -90   XYZ
    dof rx ry rz
    limits (-60.0 90.0)
           (-90.0 90.0)
           (-90.0 90.0)
  end
  begin
     id 19
     name lradius
     direction 1 -4.48956e-011 9.87925e-027   
     length 3.39961   
     axis 180 -30 -90   XYZ
    dof rx
    limits (-10.0 170.0)
  end
  begin
     id 20
     name lwrist
     direction 1 -4.48985e-011 1.73247e-026   
     length 1.6998   
     axis -9.60847e-015 90 90   XYZ
    dof ry
    limits (-180.0 0.0)
 end
  begin
     id 21 
     name lhand
     direction 1 -4.48798e-011 3.46119e-026   
     length 0.519693   
     axis -2.21073e-014 90 90   XYZ
    dof rx rz
    limits (-90.0 90.0)
           (-45.0 45.0)
  end
  begin
     id 22 
     name lfingers
     direction 1 -4.48938e-011 6.92797e-026   
     length 0.41899   
     axis -4.42155e-014 90 90   XYZ
    dof rx
    limits (0.0 90.0)
  end
  begin
     id 23
     name lthumb
     direction 0.707107 -6.34952e-011 0.707107   
     length 0.601588   
     axis -90 45 6.0103e-014   XYZ
    dof rx rz
    limits (-45.0 45.0)
           (-45.0 45.0)
  end
  begin
     id 24 
     name rclavicle
     direction -0.866736 0.456792 -0.200276   
     length 3.45032  
     axis 0 0 0   XYZ 
    dof ry rz
    limits (-10.0 20.0)
           (-20.0 0.0)
  end
  begin
     id 25 
     name rhumerus
     direction -1 -4.4897e-011 8.65094e-028  
     length 5.32214   
     axis 180 30 90   XYZ
    dof rx ry rz
    limits (-90.0 60.0)
           (-90.0 90.0)
           (-90.0 90.0)
  end
  begin
     id 26 
     name rradius
     direction -1 -4.48987e-011 1.08427e-026   
     length 3.51208   
     axis 180 30 90   XYZ
    dof rx
    limits (-10.0 170.0)
  end
  begin
     id 27 
     name rwrist
     direction -1 -4.48961e-011 1.73222e-026   
     length 1.75604   
     axis -9.60847e-015 -90 -90   XYZ
    dof ry
    limits (-180.0 0.0)
  end
  begin
     id 28
     name rhand
     direction -1 -4.48895e-011 3.46314e-026   
     length 0.586681   
     axis -2.21073e-014 -90 -90   XYZ
    dof rx rz
    limits (-90.0 90.0)
           (-45.0 45.0)
  end
  begin
     id 29
     name rfingers
     direction -1 -4.48968e-011 6.92916e-026   
     length 0.472997   
     axis -4.42155e-014 -90 -90   XYZ
    dof rx
    limits (0.0 90.0)
  end
  begin
     id 30
     name rthumb
     direction -0.707107 -6.34848e-011 0.707107   
     length 0.679133   
     axis -90 -45 -6.0103e-014   XYZ
    dof rx rz
    limits (-45.0 45.0)
           (-45.0 45.0)
  end
:hierarchy
  begin
    root lhipjoint rhipjoint lowerback
    lhipjoint lfemur
    lfemur ltibia
    ltibia lfoot
    lfoot ltoes
    rhipjoint rfemur
    rfemur rtibia
    rtibia rfoot
    rfoot rtoes
    lowerback upperback
    upperback thorax
    thorax lowerneck lclavicle rclavicle
    lowerneck upperneck
    upperneck head
    lclavicle lhumerus
    lhumerus lradius
    lradius lwrist
    lwrist lhand lthumb
    lhand lfingers
    rclavicle rhumerus
    rhumerus rradius
    rradius rwrist
    rwrist rhand rthumb
    rhand rfingers
  end

#!OML:ASF H:\Dans Jumps\Project 1\Capture day 1\Session 1\subject.ASF
:FULLY-SPECIFIED
:DEGREES
65
root 0.37878 17.6049 -13.9742 5.95861 -0.360592 -1.27006
lowerback -2.8451 -0.687275 0.433676
upperback 3.58011 -1.02653 1.75415
thorax 5.32487 -0.530419 1.4982
lowerneck -12.1116 0.765423 -1.85749
upperneck 35.0358 1.74261 -0.327467
head 13.9211 0.460894 0.459146
rclavicle -5.36719e-015 -1.78906e-014
rhumerus -23.5946 -14.038 -82.9423
rradius 24.0213
rwrist 31.7728
rhand -20.0209 -27.1218
rfingers 7.12502
rthumb 6.3196 -57.0075
lclavicle -5.36719e-015 -1.78906e-014
lhumerus -19.8427 -6.5188 91.93
lradius 19.4666
lwrist 3.51482
lhand -26.1266 -3.92212
lfingers 7.12502
lthumb 0.423507 26.0572
rfemur -12.6035 -3.82355 19.9335
rtibia 20.7278
rfoot -12.9715 -0.991418
rtoes 17.8012
lfemur -11.1288 6.45834 -18.0307
ltibia 17.8105
lfoot -10.8631 3.53737
ltoes 3.06838
66
root 0.378447 17.6048 -13.975 5.95511 -0.347933 -1.27567
lowerback -2.84289 -0.687604 0.443338
upperback 3.58673 -1.0277 1.75657
thorax 5.33045 -0.530691 1.49521
lowerneck -12.0981 0.758635 -1.86203
upperneck 35.0384 1.73006 -0.317851
head 13.9191 0.456212 0.461842
rclavicle 3.97569e-016 -1.07344e-014
rhumerus -23.6136 -14.0529 -82.9346
rradius 24.0198
rwrist 31.7751
rhand -20.0514 -27.109
rfingers 7.12502
rthumb 6.29015 -56.9956
lclavicle 3.97569e-016 -1.07344e-014
lhumerus -19.8574 -6.53201 91.9526
lradius 19.4669
lwrist 3.52252
lhand -26.1316 -3.96668
lfingers 7.12502
lthumb 0.418671 26.0127
rfemur -12.6007 -3.83127 19.9412
rtibia 20.7261
rfoot -12.9714 -0.99402
rtoes 17.8132
lfemur -11.1376 6.45266 -18.0231
ltibia 17.8256
lfoot -10.8661 3.53105
ltoes 3.06115
67
root 0.378118 17.6046 -13.9757 5.95012 -0.335701 -1.28307
lowerback -2.83863 -0.688684 0.453689
upperback 3.59371 -1.02994 1.76028
thorax 5.33529 -0.531501 1.49312
lowerneck -12.0877 0.753185 -1.86644
upperneck 35.0433 1.71989 -0.309155
head 13.9189 0.4524 0.464536
rclavicle 2.78299e-015 -4.37326e-015
rhumerus -23.6313 -14.064 -82.9269
rradius 24.0197
rwrist 31.7758
rhand -20.0704 -27.1062
rfingers 7.12502
rthumb 6.27187 -56.9934
lclavicle 2.78299e-015 -4.37326e-015
lhumerus -19.871 -6.53602 91.9747
lradius 19.4678
lwrist 3.52637
lhand -26.142 -4.01688
lfingers 7.12502
lthumb 0.408604 25.9625
rfemur -12.5959 -3.83666 19.9507
rtibia 20.7245
rfoot -12.9708 -0.998004
rtoes 17.8221
lfemur -11.1448 6.44683 -18.013
ltibia 17.841
lfoot -10.8712 3.52623
ltoes 3.0559
68
root 0.377775 17.6044 -13.9765 5.94303 -0.322185 -1.29034
lowerback -2.83251 -0.690627 0.464049
upperback 3.6006 -1.03328 1.76346
thorax 5.33898 -0.53284 1.49041
lowerneck -12.0791 0.749471 -1.86654
upperneck 35.0499 1.71226 -0.303517
head 13.92 0.449813 0.465645
rclavicle -8.05078e-015 -3.97569e-016
rhumerus -23.6491 -14.0719 -82.9202
rradius 24.0204
rwrist 31.7747
rhand -20.0836 -27.1041
rfingers 7.12502
rthumb 6.25911 -56.9916
lclavicle -8.05078e-015 -3.97569e-016
lhumerus -19.8836 -6.53303 91.9951
lradius 19.4725
lwrist 3.52876
lhand -26.1481 -4.05279
lfingers 7.12502
lthumb 0.402697 25.9266
rfemur -12.5887 -3.8424 19.96
rtibia 20.7239
rfoot -12.9706 -1.00298
rtoes 17.8341
lfemur -11.1499 6.44181 -18.0028
ltibia 17.8565
lfoot -10.8775 3.51984
ltoes 3.05033
69
root 0.377356 17.6043 -13.9775 5.93527 -0.306219 -1.295
lowerback -2.82333 -0.693331 0.471326
upperback 3.60707 -1.03735 1.76529
thorax 5.34052 -0.534629 1.48802
lowerneck -12.0722 0.746494 -1.86301
upperneck 35.0575 1.70544 -0.299694
head 13.9219 0.44779 0.465525
rclavicle -5.96354e-015 2.18663e-014
rhumerus -23.663 -14.0844 -82.9141
rradius 24.0199
rwrist 31.7733
rhand -20.0782 -27.1131
rfingers 7.12502
rthumb 6.26434 -57.0005
lclavicle -5.96354e-015 2.18663e-014
lhumerus -19.8955 -6.52535 92.0138
lradius 19.4851
lwrist 3.52724
lhand -26.1525 -4.0514
lfingers 7.12502
lthumb 0.398466 25.928
rfemur -12.5816 -3.84895 19.9669
rtibia 20.725
rfoot -12.9706 -1.01128
rtoes 17.8442
lfemur -11.1549 6.43602 -17.9949
ltibia 17.872
lfoot -10.8836 3.51161
ltoes 3.04763
70
root 0.376914 17.6041 -13.9786 5.92786 -0.289523 -1.29839
lowerback -2.81291 -0.696189 0.476758
upperback 3.61353 -1.04147 1.7665
thorax 5.34137 -0.536505 1.48602
lowerneck -12.0708 0.744246 -1.85582
upperneck 35.0679 1.69991 -0.298662
head 13.9263 0.446372 0.463882
rclavicle 6.95746e-016 1.15295e-014
rhumerus -23.6746 -14.0967 -82.9091
rradius 24.0218
rwrist 31.7721
rhand -20.0608 -27.1216
rfingers 7.12502
rthumb 6.28111 -57.0085
lclavicle 6.95746e-016 1.15295e-014
lhumerus -19.9057 -6.51644 92.0319
lradius 19.5036
lwrist 3.52724
lhand -26.1532 -4.0294
lfingers 7.12502
lthumb 0.397795 25.95
rfemur -12.5757 -3.85434 19.9725
rtibia 20.7276
rfoot -12.9715 -1.02183
rtoes 17.8539
lfemur -11.161 6.42943 -17.9884
ltibia 17.8876
lfoot -10.8885 3.50222
ltoes 3.05117
71
root 0.376476 17.6039 -13.9798 5.92164 -0.273081 -1.30034
lowerback -2.80367 -0.699121 0.479942
upperback 3.62043 -1.04558 1.76738
thorax 5.34338 -0.538459 1.48493
lowerneck -12.0716 0.742232 -1.84863
upperneck 35.0789 1.69501 -0.298231
head 13.9315 0.445132 0.462113
rclavicle 2.08724e-015 3.18055e-015
rhumerus -23.6831 -14.1104 -82.9042
rradius 24.0226
rwrist 31.7733
rhand -20.0418 -27.1245
rfingers 7.12502
rthumb 6.29946 -57.0108
lclavicle 2.08724e-015 3.18055e-015
lhumerus -19.9128 -6.51155 92.0506
lradius 19.525
lwrist 3.53371
lhand -26.1469 -3.99644
lfingers 7.12502
lthumb 0.403904 25.9829
rfemur -12.572 -3.86089 19.9767
rtibia 20.7314
rfoot -12.9742 -1.03182
rtoes 17.8626
lfemur -11.1685 6.42348 -17.9837
ltibia 17.9029
lfoot -10.8919 3.49194
ltoes 3.06105
72
root 0.376055 17.6036 -13.9809 5.91514 -0.257149 -1.30165
lowerback -2.79304 -0.701601 0.483205
upperback 3.62703 -1.04901 1.76707
thorax 5.34424 -0.540041 1.48262
lowerneck -12.0739 0.740373 -1.83857
upperneck 35.0909 1.69044 -0.300078
head 13.9377 0.444088 0.458985
rclavicle -5.96354e-015 1.66979e-014
rhumerus -23.6898 -14.1291 -82.8996
rradius 24.0225
rwrist 31.7784
rhand -20.0164 -27.126
rfingers 7.12502
rthumb 6.32399 -57.0116
lclavicle -5.96354e-015 1.66979e-014
lhumerus -19.9171 -6.51181 92.0691
lradius 19.5465
lwrist 3.54583
lhand -26.1402 -3.95678
lfingers 7.12502
lthumb 0.410319 26.0226
rfemur -12.5691 -3.86705 19.9799
rtibia 20.736
rfoot -12.9785 -1.04119
rtoes 17.8739
lfemur -11.1762 6.41629 -17.9799
ltibia 17.9186
lfoot -10.8947 3.48293
ltoes 3.07107
73
root 0.375719 17.6033 -13.9819 5.91186 -0.244656 -1.30192
lowerback -2.78945 -0.704197 0.484464
upperback 3.63471 -1.05266 1.76757
thorax 5.35032 -0.541839 1.48219
lowerneck -12.0774 0.738882 -1.83451
upperneck 35.1024 1.68741 -0.300068
head 13.9437 0.44316 0.457901
rclavicle 5.96354e-015 -8.74653e-015
rhumerus -23.6951 -14.1456 -82.8947
rradius 24.0186
rwrist 31.7905
rhand -20.0131 -27.1062
rfingers 7.12502
rthumb 6.32721 -56.9917
lclavicle 5.96354e-015 -8.74653e-015
lhumerus -19.9177 -6.51525 92.0896
lradius 19.5603
lwrist 3.56497
lhand -26.1343 -3.95749
lfingers 7.12502
lthumb 0.415999 26.0218
rfemur -12.5697 -3.87429 19.9816
rtibia 20.7413
rfoot -12.9831 -1.04672
rtoes 17.8773
lfemur -11.1869 6.40877 -17.9783
ltibia 17.935
lfoot -10.8964 3.47838
ltoes 3.07316
74
root 0.375412 17.6031 -13.9828 5.90891 -0.232589 -1.3025
lowerback -2.78324 -0.706873 0.486218
upperback 3.63981 -1.05635 1.76818
thorax 5.35219 -0.543631 1.48162
lowerneck -12.0773 0.737054 -1.83478
upperneck 35.1138 1.68402 -0.297384
head 13.9488 0.441877 0.458574
rclavicle 3.97569e-015 8.74653e-015
rhumerus -23.7031 -14.1642 -82.8877
rradius 24.0131
rwrist 31.8096
rhand -20.0115 -27.085
rfingers 7.12502
rthumb 6.3287 -56.9705
lclavicle 3.97569e-015 8.74653e-015
lhumerus -19.9213 -6.51887 92.1116
lradius 19.5734
lwrist 3.58651
lhand -26.1308 -3.96552
lfingers 7.12502
lthumb 0.419408 26.0138
rfemur -12.5714 -3.88122 19.9834
rtibia 20.7473
rfoot -12.9873 -1.05097
rtoes 17.8815
lfemur -11.1981 6.40183 -17.9768
ltibia 17.9515
lfoot -10.8971 3.474
ltoes 3.06638
75
root 0.375086 17.6028 -13.9839 5.90688 -0.220296 -1.3042
lowerback -2.77597 -0.7096 0.489202
upperback 3.64329 -1.06015 1.76904
thorax 5.35174 -0.545421 1.48063
lowerneck -12.0733 0.734778 -1.83794
upperneck 35.1231 1.67974 -0.292231
head 13.9521 0.4402 0.460579
rclavicle 5.26779e-015 5.56597e-015
rhumerus -23.7113 -14.1839 -82.8799
rradius 24.0046
rwrist 31.8305
rhand -20.0094 -27.0674
rfingers 7.12502
rthumb 6.33077 -56.9528
lclavicle 5.26779e-015 5.56597e-015
lhumerus -19.9246 -6.52458 92.1348
lradius 19.5827
lwrist 3.60812
lhand -26.1319 -3.97495
lfingers 7.12502
lthumb 0.418384 26.0044
rfemur -12.5749 -3.88661 19.9866
rtibia 20.7539
rfoot -12.9904 -1.0563
rtoes 17.8787
lfemur -11.2107 6.39439 -17.9741
ltibia 17.9675
lfoot -10.8968 3.47023
ltoes 3.04738
76
root 0.37477 17.6025 -13.985 5.90395 -0.207353 -1.30614
lowerback -2.76709 -0.71242 0.492821
upperback 3.64594 -1.06404 1.76968
thorax 5.34947 -0.547229 1.47907
lowerneck -12.0661 0.732159 -1.84221
upperneck 35.1307 1.67495 -0.286571
head 13.9538 0.438265 0.462876
rclavicle -4.87022e-015 7.95139e-016
rhumerus -23.721 -14.2038 -82.8716
rradius 23.9946
rwrist 31.8522
rhand -20.0116 -27.0492
rfingers 7.12502
rthumb 6.32863 -56.9346
lclavicle -4.87022e-015 7.95139e-016
lhumerus -19.931 -6.53112 92.1585
lradius 19.5955
lwrist 3.6308
lhand -26.1268 -3.97395
lfingers 7.12502
lthumb 0.423303 26.0054
rfemur -12.5775 -3.89054 19.9899
rtibia 20.7607
rfoot -12.9924 -1.06331
rtoes 17.8688
lfemur -11.2227 6.38585 -17.971
ltibia 17.984
lfoot -10.8961 3.4678
ltoes 3.02133
77
root 0.374465 17.6022 -13.9862 5.90078 -0.192793 -1.30814
lowerback -2.75805 -0.715505 0.49651
upperback 3.64828 -1.06829 1.77033
thorax 5.34681 -0.549206 1.47745
lowerneck -12.0561 0.729142 -1.8478
upperneck 35.1356 1.66944 -0.279817
head 13.9537 0.436036 0.465706
rclavicle 7.15625e-015 -1.66979e-014
rhumerus -23.7299 -14.2258 -82.8629
rradius 23.9836
rwrist 31.8729
rhand -20.0087 -27.0449
rfingers 7.12502
rthumb 6.33143 -56.9303
lclavicle 7.15625e-015 -1.66979e-014
lhumerus -19.937 -6.538 92.1824
lradius 19.6068
lwrist 3.64941
lhand -26.1219 -3.96627
lfingers 7.12502
lthumb 0.427997 26.013
rfemur -12.5798 -3.89634 19.9935
rtibia 20.7672
rfoot -12.9924 -1.07011
rtoes 17.857
lfemur -11.2346 6.37651 -17.9677
ltibia 18.0015
lfoot -10.8966 3.46459
ltoes 2.99801
